<svg width="32" height="32" viewBox="0 0 32 32" fill="none" xmlns="http://www.w3.org/2000/svg">
<rect width="32" height="32" fill="white"/>
<path d="M27.0723 9.375C27.5945 10.2516 27.9038 11.2907 28 12.4922V14.123C27.8805 15.6131 27.4202 16.9775 26.6162 18.2158C25.6827 19.6704 24.3146 20.8261 22.5127 21.6836C20.7217 22.5411 18.5451 22.9707 15.9834 22.9707C13.5955 22.9707 11.5278 22.5851 9.78027 21.8145C8.0435 21.0438 6.6754 19.9684 5.67676 18.5898C4.68921 17.2114 4.13027 15.6104 4 13.7871H8.16797C8.27654 15.0462 8.70041 16.0882 9.43848 16.9131C10.1874 17.7271 11.1318 18.3347 12.2715 18.7363C13.422 19.1271 14.6592 19.3232 15.9834 19.3232C17.5247 19.3232 18.9092 19.0735 20.1357 18.5742C21.3623 18.0641 22.3334 17.3579 23.0498 16.457C23.7662 15.5452 24.125 14.4813 24.125 13.2656C24.125 13.0087 24.1075 12.763 24.0742 12.5283H5.79102V9H26.8359C26.9169 9.12212 26.9962 9.24737 27.0723 9.375Z" fill="#85BB65"/>
</svg>
